<svg width="223" height="310" viewBox="0 0 223 310" fill="none" xmlns="http://www.w3.org/2000/svg">
<path d="M216.321 1.11523L6.69631 1.11523C3.55033 1.11523 1 3.66556 1 6.81155L1 303.02C1 306.166 3.55033 308.716 6.69631 308.716L216.321 308.716C219.467 308.716 222.017 306.166 222.017 303.02L222.017 6.81155C222.017 3.66556 219.467 1.11523 216.321 1.11523Z" fill="white" stroke="#DDDDDD" stroke-width="0.75"/>
<path fill-rule="evenodd" clip-rule="evenodd" d="M111.508 296.185C115.283 296.185 118.344 293.125 118.344 289.35C118.344 285.575 115.283 282.514 111.508 282.514C107.733 282.514 104.673 285.575 104.673 289.35C104.673 293.125 107.733 296.185 111.508 296.185Z" fill="#DDDDDD"/>
<path d="M209.484 27.3174L13.5312 27.3174L13.5312 271.12H209.484L209.484 27.3174Z" fill="#F0F0F0"/>
<path d="M113.787 13.6475H111.509V15.926H113.787V13.6475Z" fill="#868686"/>
</svg>
