<svg width="572" height="394" viewBox="0 0 572 394" fill="none" xmlns="http://www.w3.org/2000/svg">
<path d="M552.015 1H19.9851C9.49992 1 1 9.49992 1 19.9851V374.396C1 384.881 9.49992 393.381 19.9851 393.381H552.015C562.5 393.381 571 384.881 571 374.396V19.9851C571 9.49992 562.5 1 552.015 1Z" fill="white" stroke="#DDDDDD"/>
<path d="M19.9851 1H552.015C562.499 1 571 9.49992 571 19.9851V347.151H1V19.9851C1 9.49992 9.49992 1 19.9851 1Z" stroke="#DDDDDD"/>
<path d="M548.778 32.9548H23.2246V332.229H548.778V32.9548Z" fill="#F0F0F0"/>
<path fill-rule="evenodd" clip-rule="evenodd" d="M287.218 15.9224C289.234 15.9224 290.868 14.2884 290.868 12.2727C290.868 10.2571 289.234 8.62305 287.218 8.62305C285.202 8.62305 283.568 10.2571 283.568 12.2727C283.568 14.2884 285.202 15.9224 287.218 15.9224Z" fill="#DDDDDD"/>
</svg>
